HIERARCHY
ROOT Hips
{
    OFFSET 0.0 0.0 0.0
    CHANNELS 6 Xposition Yposition Zposition Zrotation Xrotation Yrotation
    JOINT LeftUpLeg
    {
        OFFSET 12.78227089595552 0.0 0.0
        CHANNELS 3 Zrotation Xrotation Yrotation
        JOINT LeftLeg
        {
            OFFSET 0.0 0.0 -47.29945512334285
            CHANNELS 3 Zrotation Xrotation Yrotation
            JOINT LeftFoot
            {
                OFFSET 0.0 0.0 -36.405566786471745
                CHANNELS 3 Zrotation Xrotation Yrotation
                JOINT LeftToeBase
                {
                    OFFSET 0.0 -11.889395647023578 0.0
                    CHANNELS 3 Zrotation Xrotation Yrotation
                    End Site
                    {
                        OFFSET 0 0 0
                    }
                }
            }
        }
    }
    JOINT RightUpLeg
    {
        OFFSET -12.78227089595552 0.0 0.0
        CHANNELS 3 Zrotation Xrotation Yrotation
        JOINT RightLeg
        {
            OFFSET 0.0 0.0 -47.29945512334285
            CHANNELS 3 Zrotation Xrotation Yrotation
            JOINT RightFoot
            {
                OFFSET 0.0 0.0 -36.405566786471745
                CHANNELS 3 Zrotation Xrotation Yrotation
                JOINT RightToeBase
                {
                    OFFSET 0.0 -11.889395647023578 0.0
                    CHANNELS 3 Zrotation Xrotation Yrotation
                    End Site
                    {
                        OFFSET 0 0 0
                    }
                }
            }
        }
    }
    JOINT Spine
    {
        OFFSET 0.0 0.0 12.073125676803292
        CHANNELS 3 Zrotation Xrotation Yrotation
        JOINT Spine1
        {
            OFFSET 0.0 0.0 11.999155913801397
            CHANNELS 3 Zrotation Xrotation Yrotation
            JOINT Spine2
            {
                OFFSET 0.0 0.0 11.999155913801397
                CHANNELS 3 Zrotation Xrotation Yrotation
                JOINT Spine3
                {
                    OFFSET 0.0 0.0 11.999155913801392
                    CHANNELS 3 Zrotation Xrotation Yrotation
                    JOINT Spine4
                    {
                        OFFSET 0.0 0.0 11.9991559138014
                        CHANNELS 3 Zrotation Xrotation Yrotation
                        JOINT RightShoulder
                        {
                            OFFSET -20.955615325490754 0.0 0.0
                            CHANNELS 3 Zrotation Xrotation Yrotation
                            JOINT RightArm
                            {
                                OFFSET -34.30347128125841 0.0 0.0
                                CHANNELS 3 Zrotation Xrotation Yrotation
                                JOINT RightForeArm
                                {
                                    OFFSET -32.7905669506412 0.0 0.0
                                    CHANNELS 3 Zrotation Xrotation Yrotation
                                    JOINT RightHand
                                    {
                                        OFFSET -11.772681304386897 0.0 0.0
                                        CHANNELS 3 Zrotation Xrotation Yrotation
                                        End Site
                                        {
                                            OFFSET 0 0 0
                                        }
                                    }
                                }
                            }
                        }
                        JOINT LeftShoulder
                        {
                            OFFSET 20.955615325490754 0.0 0.0
                            CHANNELS 3 Zrotation Xrotation Yrotation
                            JOINT LeftArm
                            {
                                OFFSET 34.30347128125841 0.0 0.0
                                CHANNELS 3 Zrotation Xrotation Yrotation
                                JOINT LeftForeArm
                                {
                                    OFFSET 32.7905669506412 0.0 0.0
                                    CHANNELS 3 Zrotation Xrotation Yrotation
                                    JOINT LeftHand
                                    {
                                        OFFSET 11.772681304386897 0.0 0.0
                                        CHANNELS 3 Zrotation Xrotation Yrotation
                                        End Site
                                        {
                                            OFFSET 0 0 0
                                        }
                                    }
                                }
                            }
                        }
                        JOINT Neck
                        {
                            OFFSET 0.0 0.0 11.999155926258938
                            CHANNELS 3 Zrotation Xrotation Yrotation
                            JOINT Head
                            {
                                OFFSET 0.0 0.0 25.75896500805433
                                CHANNELS 3 Zrotation Xrotation Yrotation
                                End Site
                                {
                                    OFFSET 0 0 0
                                }
                            }
                        }
                    }
                }
            }
        }
    }
}
MOTION
Frames: 9
Frame Time: 0.03333333333333333
53.277052044868476 -26.50738152265549 510.31018123626717 112.59122866083801 -83.23527786528727 111.06664126206574 8.501358959452848 -6.533069486045424 -34.31015888234563 -13.224639860912617 2.416138918779076 53.48004331579912 74.6413228329837 6.3611093629270335e-15 33.23827376377432 3.1805546814635168e-15 -4.4139062980501586e-32 -1.5902773407317584e-15 6.511459599603607 8.303172559571994 27.259331264620737 -6.8383892724694455 -2.064065695405221 -50.14522396109257 -96.37382615861048 -3.1805546814635168e-15 -41.080534627002805 6.361109362927035e-15 -3.1805546814635176e-15 -1.5902773407317584e-15 0.004841906623105573 0.9273849915715597 0.08822344687283494 7.951386703658791e-16 -5.517382872562698e-33 -7.951386703658791e-16 7.951386703658791e-16 -5.517382872562698e-33 -7.951386703658791e-16 7.951386703658791e-16 -5.517382872562698e-33 -7.951386703658791e-16 7.951386703658791e-16 -5.517382872562698e-33 -7.951386703658791e-16 152.08153011131304 6.569773490056958 -169.85058238897065 128.39610388068905 1.1453864064267627e-14 5.537494677717585e-15 4.722045826176449e-15 -0.588138294509251 -9.517553726203607e-15 0.0 0.0 3.1805546814635164e-15 148.98852518900108 5.5861556694524 -174.54785294023512 -52.10766287690874 5.325808140085881e-15 -9.365480587715854e-16 -180.0 -35.88076226613126 -180.0 -1.5902773407317584e-15 2.2069531490250793e-32 -1.5902773407317584e-15 -9.490019499751392 -7.093129776161527e-15 -2.4837204665841538e-15 9.93923337957349e-17 0.0 0.0
53.277052044868476 -26.50738152265549 510.31018123626717 112.59122866083801 -83.23527786528727 111.06664126206574 8.501358959452848 -6.533069486045424 -34.31015888234563 -13.224639860912617 2.416138918779076 53.48004331579912 74.6413228329837 6.3611093629270335e-15 33.23827376377432 3.1805546814635168e-15 -4.4139062980501586e-32 -1.5902773407317584e-15 6.511459599603607 8.303172559571994 27.259331264620737 -6.8383892724694455 -2.064065695405221 -50.14522396109257 -96.37382615861048 -3.1805546814635168e-15 -41.080534627002805 6.361109362927035e-15 -3.1805546814635176e-15 -1.5902773407317584e-15 0.004841906623105573 0.9273849915715597 0.08822344687283494 7.951386703658791e-16 -5.517382872562698e-33 -7.951386703658791e-16 7.951386703658791e-16 -5.517382872562698e-33 -7.951386703658791e-16 7.951386703658791e-16 -5.517382872562698e-33 -7.951386703658791e-16 7.951386703658791e-16 -5.517382872562698e-33 -7.951386703658791e-16 152.08153011131304 6.569773490056958 -169.85058238897065 128.39610388068905 1.1453864064267627e-14 5.537494677717585e-15 4.722045826176449e-15 -0.588138294509251 -9.517553726203607e-15 0.0 0.0 3.1805546814635164e-15 148.98852518900108 5.5861556694524 -174.54785294023512 -52.10766287690874 5.325808140085881e-15 -9.365480587715854e-16 -180.0 -35.88076226613126 -180.0 -1.5902773407317584e-15 2.2069531490250793e-32 -1.5902773407317584e-15 -9.490019499751392 -7.093129776161527e-15 -2.4837204665841538e-15 9.93923337957349e-17 0.0 0.0
53.277052044868476 -26.50738152265549 510.31018123626717 112.59122866083801 -83.23527786528727 111.06664126206574 8.501358959452848 -6.533069486045424 -34.31015888234563 -13.224639860912617 2.416138918779076 53.48004331579912 74.6413228329837 6.3611093629270335e-15 33.23827376377432 3.1805546814635168e-15 -4.4139062980501586e-32 -1.5902773407317584e-15 6.511459599603607 8.303172559571994 27.259331264620737 -6.8383892724694455 -2.064065695405221 -50.14522396109257 -96.37382615861048 -3.1805546814635168e-15 -41.080534627002805 6.361109362927035e-15 -3.1805546814635176e-15 -1.5902773407317584e-15 0.004841906623105573 0.9273849915715597 0.08822344687283494 7.951386703658791e-16 -5.517382872562698e-33 -7.951386703658791e-16 7.951386703658791e-16 -5.517382872562698e-33 -7.951386703658791e-16 7.951386703658791e-16 -5.517382872562698e-33 -7.951386703658791e-16 7.951386703658791e-16 -5.517382872562698e-33 -7.951386703658791e-16 152.08153011131304 6.569773490056958 -169.85058238897065 128.39610388068905 1.1453864064267627e-14 5.537494677717585e-15 4.722045826176449e-15 -0.588138294509251 -9.517553726203607e-15 0.0 0.0 3.1805546814635164e-15 148.98852518900108 5.5861556694524 -174.54785294023512 -52.10766287690874 5.325808140085881e-15 -9.365480587715854e-16 -180.0 -35.88076226613126 -180.0 -1.5902773407317584e-15 2.2069531490250793e-32 -1.5902773407317584e-15 -9.490019499751392 -7.093129776161527e-15 -2.4837204665841538e-15 9.93923337957349e-17 0.0 0.0
53.28104567527771 -26.505738043785097 510.30463943481453 112.75558673273106 -83.23279722054738 111.2408885089419 8.977175206724407 -6.989493149490867 -34.372585485512644 -13.533711923668479 2.4448157860949133 55.1367892866137 80.31308020665003 -9.54166404439055e-15 32.49546986371252 3.1805546814635168e-15 0.0 0.0 6.490878931154431 8.297549190421766 27.255426838086553 -6.683871259670489 -2.0186527026879024 -50.192621823366906 -96.58234845453804 0.0 -41.25702333638789 0.0 0.0 0.0 0.004871702338974481 0.9368198272117819 0.08753010145922686 7.951386703658792e-16 0.0 0.0 7.951386703658792e-16 0.0 0.0 7.951386703658792e-16 0.0 0.0 7.951386703658792e-16 0.0 0.0 151.73965951117484 8.794338440216391 -169.85487601441633 126.04995895972993 -6.0297249390153355e-15 -2.1767808782800557e-15 -3.3746292668694105e-15 3.4141729258316165 6.4645081920052696e-15 0.0 0.0 0.0 148.94625269241698 5.574344558648206 -174.50565514723667 -52.26290023782584 7.839052390213491e-15 2.074316792357158e-15 180.0 -36.27828264641886 180.0 1.5902773407317584e-15 0.0 0.0 -9.438281766291585 -2.445896886425184e-14 -2.7172327561305963e-15 9.93923337957349e-17 -8.620910738379216e-35 -9.93923337957349e-17
53.28104660511017 -26.50048123598099 510.3027500152589 112.83992572113719 -83.23047102257867 111.32788035674612 9.144301570151223 -7.147531712237245 -34.38092447793443 -13.350263086272864 2.4045552639814405 56.51056111592339 86.02209870635538 1.90833280887811e-14 32.22412997662706 -1.5902773407317584e-15 0.0 0.0 6.48994168103989 8.302806881044697 27.2483742310427 -6.675802146856194 -2.0176385049995518 -50.199513470569954 -96.63197084953892 -9.54166404439055e-15 -41.26570809791376 1.5902773407317584e-15 -2.2069531490250793e-32 -1.5902773407317584e-15 0.004748487778911013 0.936166632749487 0.08838920416085583 0.0 0.0 0.0 0.0 0.0 0.0 0.0 0.0 0.0 0.0 0.0 0.0 151.48212837421318 10.090028913359921 -169.81476539172604 125.19184940272174 8.73275506724767e-15 1.0796937898977737e-14 -1.5962385988591793e-16 5.724753648344124 3.192508927848623e-15 0.0 0.0 0.0 148.93640802647164 5.55955574757441 -174.50302457968573 -52.283645271739026 1.887632424165634e-14 3.950038165072781e-15 -180.0 -36.6003066828943 -180.0 0.0 0.0 -7.951386703658792e-16 -9.405147639068566 1.3141129968794453e-14 5.823516245469498e-16 1.987846675914698e-16 -6.2120208622334304e-18 2.981770013872047e-16
53.28046545982361 -26.493441939353943 510.30065975189217 112.94709006161905 -83.22701369412296 111.4385345882259 9.306180858355262 -7.298484065425554 -34.39350098491298 -13.55099258196494 2.430898432561222 56.76017179995935 87.28653142928381 0.0 32.33522940840172 0.0 0.0 0.0 6.489982923007148 8.310880567942009 27.23790968301969 -6.669744774440204 -2.017827409841708 -50.20500090459809 -96.68110047805176 -3.1805546814635168e-15 -41.27134954050653 9.541664044390553e-15 -1.3241718894150476e-31 -1.5902773407317588e-15 0.004573007473926726 0.9343112124151952 0.08911504729446515 7.951386703658792e-16 0.0 0.0 7.951386703658792e-16 0.0 0.0 7.951386703658792e-16 0.0 0.0 7.951386703658792e-16 0.0 0.0 151.2293677646757 11.29935900328088 -169.77248055796775 124.34678189637104 -2.2270119990782593e-15 4.219153438779552e-15 -9.175850136848322e-15 7.697553757298248 -5.7581823273783245e-15 3.1805546814635168e-15 0.0 0.0 148.92615595128026 5.541359824757123 -174.50155972193778 -52.302658919182576 -1.217214236231317e-14 -1.1291500809904421e-14 -180.0 -36.86906792578126 180.0 1.5902773407317584e-15 0.0 0.0 -9.361912785973768 5.974605538765599e-15 4.892028202988875e-16 -9.93923337957349e-17 0.0 0.0
53.27921855449677 -26.483358836174013 510.2982719421387 113.08677453979485 -83.22137126916337 111.5822974804672 9.45545873773672 -7.434452198625522 -34.40551793871861 -14.9331678996284 2.6632970668478784 54.39688906504545 91.02075892731987 -1.5902773407317584e-15 22.417331512043486 -3.1805546814635168e-15 0.0 0.0 6.494263525626767 8.325333381514318 27.223129094556104 -6.669155538496575 -2.0202039714676916 -50.208172152240145 -96.73351515525776 0.0 -41.27729095526379 3.1805546814635164e-15 4.4139062980501586e-32 1.5902773407317582e-15 0.00435541449476617 0.9333326246136093 0.08849828208368903 0.0 0.0 -7.951386703658792e-16 0.0 0.0 -7.951386703658792e-16 0.0 0.0 -7.951386703658792e-16 0.0 0.0 -7.951386703658792e-16 151.19541729210857 11.347693323662648 -169.7761505005192 123.81591898497956 -2.99076541453185e-15 -7.905634972145359e-15 -2.7831069186812267e-15 7.468774997253763 -6.192991742727409e-15 3.1805546814635168e-15 0.0 0.0 148.9044618321142 5.519129552288367 -174.49940112385102 -52.330559689538056 -2.165783240574964e-15 -4.607759614433523e-15 180.0 -36.64550865468807 180.0 0.0 0.0 0.0 -9.309950759915091 6.0511720540863055e-15 -6.042240525428192e-16 0.0 0.0 -9.93923337957349e-17
53.27709295749665 -26.470822834968565 510.29570560455323 113.25198851422934 -83.21352423928603 111.75195231158102 9.582354237562742 -7.546508738869961 -34.42360987502418 -15.96623173409064 2.830955252135451 53.342477560178814 153.22685174644147 6.3611093629270335e-15 5.779447116428173 0.0 0.0 7.951386703658792e-16 6.501514985388767 8.345110464841424 27.20418646600142 -6.669864645764169 -2.0238109038307646 -50.2071724460739 -96.78507586824254 0.0 -41.28698644718106 -3.1805546814635168e-15 4.4139062980501586e-32 -1.5902773407317584e-15 0.004081404227850519 0.9338147098180932 0.08630065453993686 0.0 0.0 0.0 0.0 0.0 0.0 0.0 0.0 0.0 0.0 0.0 0.0 151.1188593210141 11.786837033296209 -169.77145014539775 122.91360159484402 -1.3075594038455428e-14 -2.5864700805849715e-15 1.2593440725547854e-14 7.711013391173828 2.339059024458928e-15 3.1805546814635168e-15 0.0 0.0 148.94633517654833 5.502003143923858 -174.48917162513465 -52.255812041942285 1.1367914992224e-14 -1.5091632756935926e-15 180.0 -36.0379769350103 -180.0 3.1805546814635176e-15 -4.4139062980501586e-32 -1.5902773407317588e-15 -9.252417885416474 -1.0088712818742845e-15 -7.796567762269507e-16 -1.987846675914698e-16 -6.3548973420648005e-15 -9.93923337957349e-17
53.27389433383942 -26.45112154483795 510.2923135757447 113.44724379671676 -83.20246373305173 111.95142248996274 9.68059114335391 -7.626943711800696 -34.44540974619582 -17.016347637121356 2.9961220923397995 52.22388310666201 -110.4306672045748 -1.5902773407317584e-15 26.530138832111472 0.0 6.3611093629270335e-15 0.0 6.521406872337647 8.375913945696356 27.17877663560492 -6.768396456364994 -2.05670645741866 -50.39042499342535 -98.62132956611637 4.770832022195275e-15 -28.809561691110343 0.0 0.0 6.361109362927035e-15 0.003768394053815582 0.9397084014102793 0.08234384520712415 7.951386703658792e-16 0.0 0.0 7.951386703658792e-16 0.0 0.0 7.951386703658792e-16 0.0 0.0 7.951386703658792e-16 0.0 0.0 150.63122134317493 12.539081832716734 -169.47594324300536 121.15717207947306 -2.7341680560786048e-15 4.8481289990643845e-15 0.0 8.74560163315504 0.0 -3.1805546814635168e-15 0.0 0.0 149.08550818773688 5.487863408211736 -174.46805370007144 -52.08198553168712 -3.945552029991206e-15 -3.697833661757397e-15 -180.0 -35.51838189812487 180.0 -1.5902773407317584e-15 0.0 0.0 -9.023654232982706 2.7441745753405944e-15 -7.80471765547802e-16 0.0 0.0 0.0
